<?xml version="1.0" standalone="no"?>
<!DOCTYPE svg PUBLIC "-//W3C//DTD SVG 20010904//EN"
 "http://www.w3.org/TR/2001/REC-SVG-20010904/DTD/svg10.dtd">
<svg version="1.0" xmlns="http://www.w3.org/2000/svg"
 width="764.000000pt" height="321.000000pt" viewBox="0 0 764.000000 321.000000"
 preserveAspectRatio="xMidYMid meet">

<g transform="translate(0.000000,321.000000) scale(0.100000,-0.100000)"
fill="#000000" stroke="none">
<path d="M6293 2840 c-17 -6 -41 -23 -53 -38 -26 -32 -25 -44 21 -312 33 -196
50 -243 90 -248 55 -6 65 19 110 285 36 215 35 268 -2 295 -30 22 -119 32
-166 18z m138 -66 c11 -13 7 -52 -24 -237 -20 -121 -40 -224 -46 -230 -10 -10
-21 35 -56 242 -28 163 -31 227 -12 234 6 3 37 6 68 6 40 1 60 -4 70 -15z"/>
<path d="M5708 2564 c-15 -8 -43 -35 -63 -61 -40 -53 -47 -109 -17 -139 24
-24 220 -152 329 -214 l90 -51 -63 -64 c-40 -41 -75 -89 -96 -134 -34 -69 -35
-70 -54 -52 -24 24 -210 63 -428 91 -90 11 -119 3 -141 -39 -18 -35 -20 -124
-4 -170 14 -38 35 -51 88 -51 80 0 437 62 475 82 18 10 19 8 13 -58 -4 -38 -7
-232 -7 -431 l0 -363 -100 0 c-127 0 -124 5 -118 -186 5 -129 8 -148 32 -198
21 -43 36 -59 70 -75 41 -21 56 -21 649 -21 668 0 652 -1 700 61 35 47 45 93
53 241 9 174 8 176 -123 180 l-98 3 -5 425 c-3 234 -5 426 -4 428 0 1 16 -4
35 -12 52 -22 400 -78 460 -74 43 2 55 8 72 30 42 57 31 178 -20 218 -30 23
-39 23 -278 -16 -188 -31 -256 -49 -272 -70 -15 -21 -15 -21 -37 35 -22 58
-69 125 -123 177 l-44 42 67 36 c99 55 302 185 341 219 46 41 46 87 -2 151
-70 90 -127 99 -194 29 -80 -83 -263 -316 -279 -355 -15 -37 -15 -37 -43 -23
-93 49 -257 55 -373 15 -33 -11 -61 -20 -62 -20 -2 0 -10 15 -18 33 -15 35
-193 260 -273 345 -53 57 -83 65 -135 36z m125 -106 c80 -91 237 -289 237
-300 0 -11 -40 10 -165 85 -164 99 -245 158 -245 178 0 20 80 109 97 109 6 0
40 -33 76 -72z m1194 27 c24 -25 43 -54 43 -64 0 -13 -28 -38 -85 -76 -118
-79 -317 -196 -323 -190 -14 13 287 375 312 375 5 0 29 -20 53 -45z m-672
-415 c3 -5 -19 -16 -48 -24 -30 -9 -65 -25 -79 -35 -14 -11 -28 -18 -30 -15
-3 3 -23 -11 -43 -31 -21 -19 -41 -35 -45 -35 -9 0 -24 -31 -21 -43 1 -5 -3
-6 -8 -3 -5 3 -14 -1 -21 -9 -7 -8 -9 -15 -6 -15 4 0 -2 -10 -14 -22 -11 -12
-21 -25 -21 -30 -3 -18 -5 -24 -17 -46 -7 -12 -10 -27 -7 -32 3 -6 2 -10 -4
-10 -5 0 -11 -10 -13 -22 -4 -33 -22 -28 -26 7 -5 43 16 133 44 184 13 24 21
47 18 52 -3 5 -2 9 3 8 20 -3 27 2 13 11 -10 6 -21 4 -35 -8 -20 -17 -20 -17
-2 5 11 12 25 19 33 16 7 -3 32 8 53 24 33 24 38 32 28 43 -10 12 -9 12 6 1
15 -12 20 -11 35 3 10 9 29 16 41 16 12 0 20 4 17 9 -4 5 2 7 11 5 10 -2 31
-1 47 4 32 9 83 4 91 -8z m-820 -205 c192 -31 255 -45 255 -55 0 -9 -172 -42
-345 -67 -83 -12 -119 -13 -126 -6 -16 16 -22 94 -10 126 13 35 30 35 226 2z
m1881 -2 c17 -68 3 -133 -29 -133 -62 0 -444 67 -452 80 -7 11 49 22 365 73
14 2 44 5 67 6 39 1 43 -2 49 -26z m-1036 -1008 c0 -3 -16 -23 -36 -45 l-36
-40 -322 0 -322 0 -3 45 -2 45 361 0 c198 0 360 -2 360 -5z m17 -17 c-3 -8 -6
-5 -6 6 -1 11 2 17 5 13 3 -3 4 -12 1 -19z m316 2 c303 -1 342 -6 327 -45 -8
-19 -9 -19 -9 1 -1 23 -25 34 -74 34 -18 0 -26 -4 -21 -11 5 -8 1 -8 -14 0
-30 16 -55 14 -48 -4 3 -9 0 -15 -9 -15 -9 0 -12 6 -8 15 5 14 -20 16 -213 15
-205 -2 -219 0 -221 17 -2 10 0 12 3 6 4 -10 72 -13 287 -13z m25 13 c-53 -2
-143 -2 -200 0 -57 1 -13 3 97 3 110 0 156 -2 103 -3z m322 -7 c0 -3 -4 -8
-10 -11 -5 -3 -10 -1 -10 4 0 6 5 11 10 11 6 0 10 -2 10 -4z m-690 -36 c-12
-8 -11 -10 7 -10 12 0 23 6 25 12 3 9 9 8 22 -5 17 -16 15 -17 -28 -17 -25 0
-46 -4 -46 -10 0 -5 -5 -10 -10 -10 -6 0 -3 11 6 25 9 14 21 25 28 25 6 0 4
-5 -4 -10z m110 -24 c0 -2 -7 -6 -15 -10 -8 -3 -15 -1 -15 4 0 6 7 10 15 10 8
0 15 -2 15 -4z m24 -12 c3 -8 2 -12 -4 -9 -6 3 -10 10 -10 16 0 14 7 11 14 -7z
m518 -60 l-8 -39 -5 32 c-3 18 -2 30 3 27 4 -3 8 5 9 18 0 13 3 18 5 12 2 -6
1 -28 -4 -50z m34 -61 c-10 -24 -26 -4 -26 32 0 19 6 46 12 62 12 27 13 26 16
-26 2 -29 1 -60 -2 -68z m-541 80 c-4 -30 6 -35 26 -14 11 12 24 21 29 21 6 0
-4 -13 -22 -30 -32 -31 -53 -36 -78 -20 -11 7 -7 9 15 6 17 -2 24 -1 17 1 -7
3 -9 10 -5 16 4 7 8 15 9 20 3 14 4 17 8 17 2 0 3 -8 1 -17z m-285 -28 c0 -2
-16 -12 -35 -21 -19 -9 -32 -20 -29 -25 3 -5 -1 -6 -9 -3 -15 5 -41 -15 -50
-38 -4 -10 -8 -9 -16 2 -8 12 -13 12 -23 2 -6 -6 -22 -12 -35 -12 -13 0 -23
-5 -23 -11 0 -11 11 -10 55 6 17 6 17 5 5 -5 -12 -9 -10 -10 13 -5 17 3 26 2
23 -4 -3 -5 0 -11 6 -13 7 -3 -3 -4 -24 -4 -20 1 -33 5 -30 10 3 5 -2 6 -12 3
-10 -4 -22 -7 -27 -7 -6 0 -8 -4 -5 -9 4 -5 -4 -7 -16 -3 -20 5 -21 6 -3 12
11 4 14 9 8 13 -5 3 -23 1 -40 -5 -21 -8 -59 -8 -134 -1 -57 5 -107 8 -111 6
-4 -2 -5 -10 -1 -18 6 -18 40 -20 45 -3 3 7 10 8 17 4 17 -11 -4 -26 -36 -26
-12 0 -24 -4 -27 -8 -5 -9 41 -8 51 1 14 14 25 6 12 -9 -8 -10 -21 -13 -38 -9
l-26 6 25 -21 c14 -11 19 -20 12 -20 -22 0 -65 49 -54 63 12 15 -4 61 -18 52
-6 -4 -10 15 -10 49 l0 56 280 0 c154 0 280 -2 280 -5z m218 -22 c3 -10 -17
-13 -80 -12 -45 1 -96 5 -113 9 l-30 8 28 1 c16 0 26 4 24 9 -3 4 33 5 81 2
56 -3 87 -9 90 -17z m-188 -21 c3 -3 -10 -2 -28 1 -20 4 -31 3 -27 -3 3 -6 -1
-7 -10 -3 -13 4 -14 7 -3 14 12 8 57 2 68 -9z m230 -2 c8 -5 11 -10 5 -10 -5
0 -17 5 -25 10 -8 5 -10 10 -5 10 6 0 17 -5 25 -10z m540 -56 c6 -27 5 -32 -9
-30 -9 2 -17 11 -18 22 -3 18 -2 18 6 -1 l10 -20 0 20 c0 11 -3 26 -8 34 -5 8
-6 21 -3 30 5 13 7 12 10 -4 2 -11 7 -34 12 -51z m-622 49 c-27 -2 -69 -2 -95
0 -27 2 -5 3 47 3 52 0 74 -1 48 -3z m639 -55 c-3 -8 -6 -5 -6 6 -1 11 2 17 5
13 3 -3 4 -12 1 -19z m-1353 -23 c3 -8 1 -15 -4 -15 -6 0 -10 7 -10 15 0 8 2
15 4 15 2 0 6 -7 10 -15z m1289 -12 c-12 -2 -27 -11 -33 -19 -7 -8 -20 -14
-29 -14 -10 0 -5 7 14 20 17 11 39 19 50 19 18 -2 18 -2 -2 -6z m-986 -9 c-3
-3 -12 -4 -19 -1 -8 3 -5 6 6 6 11 1 17 -2 13 -5z m1037 -4 c-5 -5 -19 -11
-31 -13 -11 -1 -28 -9 -37 -16 -9 -8 -19 -12 -21 -9 -13 12 25 31 95 47 2 1 0
-3 -6 -9z m-1084 -10 c0 -6 -30 -10 -69 -10 -49 0 -72 -4 -81 -15 -7 -8 -9
-15 -6 -15 4 0 4 -5 0 -11 -5 -8 -9 -8 -14 1 -5 7 1 22 13 36 18 21 29 24 89
24 39 0 68 -4 68 -10z m60 -10 c0 -5 -9 -10 -20 -10 -11 0 -20 5 -20 10 0 6 9
10 20 10 11 0 20 -4 20 -10z m990 -20 c-14 -10 -27 -16 -30 -13 -6 6 30 33 44
33 6 0 0 -9 -14 -20z m-73 -22 c-3 -8 -6 -5 -6 6 -1 11 2 17 5 13 3 -3 4 -12
1 -19z m33 8 c0 -3 -4 -8 -10 -11 -5 -3 -10 -1 -10 4 0 6 5 11 10 11 6 0 10
-2 10 -4z"/>
<path d="M7043 690 c0 -25 2 -35 4 -22 2 12 2 32 0 45 -2 12 -4 2 -4 -23z"/>
<path d="M6318 683 c23 -2 61 -2 85 0 23 2 4 4 -43 4 -47 0 -66 -2 -42 -4z"/>
<path d="M3591 1480 c-107 -23 -194 -91 -240 -189 -22 -48 -26 -69 -26 -146 0
-75 4 -97 23 -134 30 -55 97 -127 189 -203 41 -33 76 -70 79 -84 9 -35 -3 -72
-27 -79 -31 -10 -49 12 -49 61 l0 44 -129 0 c-90 0 -132 -4 -137 -12 -4 -6 -8
-46 -8 -87 -1 -66 3 -82 27 -124 55 -93 154 -135 287 -124 73 6 126 26 185 68
112 81 166 267 110 381 -9 18 -77 92 -151 163 -118 115 -134 134 -134 163 0
29 28 72 48 72 22 -1 37 -24 41 -67 l6 -48 120 -3 c141 -3 145 -1 145 91 0
116 -41 186 -133 231 -59 29 -158 40 -226 26z"/>
<path d="M1044 1472 c-20 -3 -24 -26 -84 -516 -35 -283 -60 -521 -57 -530 5
-13 26 -16 131 -16 99 0 125 3 129 14 3 8 22 151 42 318 20 167 39 310 42 318
4 11 8 9 16 -10 6 -14 25 -55 42 -92 l31 -67 59 84 c33 47 63 85 67 85 8 0 7
-8 -37 -370 -18 -146 -31 -268 -28 -273 8 -13 250 -8 260 6 15 19 137 1038
125 1046 -5 3 -66 5 -134 3 l-123 -3 -68 -106 c-38 -59 -72 -102 -77 -97 -4 5
-25 50 -45 99 -20 50 -40 94 -44 98 -8 8 -205 15 -247 9z"/>
<path d="M2660 1470 c-8 -5 -130 -977 -130 -1032 l0 -28 130 0 c126 0 130 1
135 23 3 12 16 101 28 197 l22 175 90 6 c158 10 250 77 305 224 33 86 34 220
2 290 -28 61 -55 90 -107 118 -36 20 -60 22 -254 27 -117 3 -217 3 -221 0z
m315 -260 c26 -28 17 -121 -15 -155 -29 -31 -95 -37 -86 -7 2 9 8 51 11 92 4
41 9 78 12 83 9 15 60 6 78 -13z"/>
<path d="M2065 1460 c-3 -5 -62 -180 -130 -387 -192 -588 -205 -629 -205 -646
0 -15 15 -17 124 -17 89 0 127 4 133 12 4 7 15 40 23 73 l16 60 77 3 76 3 3
-73 3 -73 133 -3 c102 -2 134 0 137 11 6 13 -71 984 -80 1025 -5 22 -8 22
-155 22 -87 0 -151 -4 -155 -10z m108 -682 c-2 -5 -22 -8 -44 -8 -29 0 -39 4
-39 16 0 18 57 252 67 274 4 8 10 -50 14 -130 3 -80 4 -148 2 -152z"/>
</g>
</svg>
